                              <svg version="1.1" id="Layer_1" focusable="false" xmlns="http://www.w3.org/2000/svg" xmlns:xlink="http://www.w3.org/1999/xlink"
                              x="0px" y="0px" viewBox="0 0 640 512" style="enable-background:new 0 0 640 512;" xml:space="preserve" width="20" height="30">
                              <style type="text/css">
                                .st0{fill:#CCCCCC;}
                              </style>
                              <path class="st0" d="M614.7,192H480v-92c0-13.2-10.8-24-24-24h-40V24c0-13.2-10.8-24-24-24H248c-13.3,0-24,10.8-24,24v52h-40
                                c-13.3,0-24,10.8-24,24v92H25.3c-13.3,0-24,10.8-24,24v272c0,13.2,10.7,24,24,24h589.3c13.2,0,24-10.8,24-24V216
                                C638.7,202.8,627.9,192,614.7,192z M129.3,404c0,6.6-5.4,12-12,12h-40c-6.6,0-12-5.4-12-12v-40c0-6.6,5.4-12,12-12h40
                                c6.6,0,12,5.4,12,12V404z M129.3,308c0,6.6-5.4,12-12,12h-40c-6.6,0-12-5.4-12-12v-40c0-6.6,5.4-12,12-12h40c6.6,0,12,5.4,12,12V308
                                z M288,404c0,6.6-5.4,12-12,12h-40c-6.6,0-12-5.4-12-12v-40c0-6.6,5.4-12,12-12h40c6.6,0,12,5.4,12,12V404z M288,308
                                c0,6.6-5.4,12-12,12h-40c-6.6,0-12-5.4-12-12v-40c0-6.6,5.4-12,12-12h40c6.6,0,12,5.4,12,12V308z M288,212c0,6.6-5.4,12-12,12h-40
                                c-6.6,0-12-5.4-12-12v-40c0-6.6,5.4-12,12-12h40c6.6,0,12,5.4,12,12V212z M416,404c0,6.6-5.4,12-12,12h-40c-6.6,0-12-5.4-12-12v-40
                                c0-6.6,5.4-12,12-12h40c6.6,0,12,5.4,12,12V404z M416,308c0,6.6-5.4,12-12,12h-40c-6.6,0-12-5.4-12-12v-40c0-6.6,5.4-12,12-12h40
                                c6.6,0,12,5.4,12,12V308z M416,212c0,6.6-5.4,12-12,12h-40c-6.6,0-12-5.4-12-12v-40c0-6.6,5.4-12,12-12h40c6.6,0,12,5.4,12,12V212z
                                  M574.7,404c0,6.6-5.4,12-12,12h-40c-6.6,0-12-5.4-12-12v-40c0-6.6,5.4-12,12-12h40c6.6,0,12,5.4,12,12V404z M574.7,308
                                c0,6.6-5.4,12-12,12h-40c-6.6,0-12-5.4-12-12v-40c0-6.6,5.4-12,12-12h40c6.6,0,12,5.4,12,12V308z"/>
                           </svg>